HIERARCHY
ROOT Hips
{
	OFFSET 0.000000 0.000000 0.000000
	CHANNELS 6 Xposition Yposition Zposition Zrotation Yrotation Xrotation 
	JOINT LHipJoint
	{
		OFFSET 0.000000 0.000000 0.000000
		CHANNELS 3 Zrotation Yrotation Xrotation
		JOINT LeftUpLeg
		{
			OFFSET 1.363060 -1.794630 0.839290
			CHANNELS 3 Zrotation Yrotation Xrotation
			JOINT LeftLeg
			{
				OFFSET 2.448110 -6.726130 0.000000
				CHANNELS 3 Zrotation Yrotation Xrotation
				JOINT LeftFoot
				{
					OFFSET 2.562200 -7.039590 0.000000
					CHANNELS 3 Zrotation Yrotation Xrotation
					JOINT LeftToeBase
					{
						OFFSET 0.157640 -0.433110 2.322550
						CHANNELS 3 Zrotation Yrotation Xrotation
						End Site
						{
							OFFSET 0.000000 0.000000 0.000000
						}
					}
				}
			}
		}
	}
	JOINT RHipJoint
	{
		OFFSET 0.000000 0.000000 0.000000
		CHANNELS 3 Zrotation Yrotation Xrotation
		JOINT RightUpLeg
		{
			OFFSET -1.305520 -1.794630 0.839290
			CHANNELS 3 Zrotation Yrotation Xrotation
			JOINT RightLeg
			{
				OFFSET -2.542530 -6.985550 0.000000
				CHANNELS 3 Zrotation Yrotation Xrotation
				JOINT RightFoot
				{
					OFFSET -2.568260 -7.056230 0.000000
					CHANNELS 3 Zrotation Yrotation Xrotation
					JOINT RightToeBase
					{
						OFFSET -0.164730 -0.452590 2.363150
						CHANNELS 3 Zrotation Yrotation Xrotation
						End Site
						{
							OFFSET 0.000000 0.000000 0.000000
						}
					}
				}
			}
		}
	}
	JOINT LowerBack
	{
		OFFSET 0.000000 0.000000 0.000000
		CHANNELS 3 Zrotation Yrotation Xrotation
		JOINT Spine
		{
			OFFSET 0.028270 2.035590 -0.193380
			CHANNELS 3 Zrotation Yrotation Xrotation
			JOINT Spine1
			{
				OFFSET 0.056720 2.048850 -0.042750
				CHANNELS 3 Zrotation Yrotation Xrotation
				JOINT Neck
				{
					OFFSET 0.000000 0.000000 0.000000
					CHANNELS 3 Zrotation Yrotation Xrotation
					JOINT Neck1
					{
						OFFSET -0.054170 1.746240 0.172020
						CHANNELS 3 Zrotation Yrotation Xrotation
						JOINT Head
						{
							OFFSET 0.104070 1.761360 -0.123970
							CHANNELS 3 Zrotation Yrotation Xrotation
							End Site
							{
								OFFSET 0.000000 0.000000 0.000000
							}
						}
					}
				}
				JOINT LeftShoulder
				{
					OFFSET 0.000000 0.000000 0.000000
					CHANNELS 3 Zrotation Yrotation Xrotation
					JOINT LeftArm
					{
						OFFSET 3.362410 1.200890 -0.311210
						CHANNELS 3 Zrotation Yrotation Xrotation
						JOINT LeftForeArm
						{
							OFFSET 4.983000 -0.000000 -0.000000
							CHANNELS 3 Zrotation Yrotation Xrotation
							JOINT LeftHand
							{
								OFFSET 3.483560 -0.000000 -0.000000
								CHANNELS 3 Zrotation Yrotation Xrotation
								JOINT LeftFingerBase
								{
									OFFSET 0.000000 0.000000 0.000000
									CHANNELS 3 Zrotation Yrotation Xrotation
									JOINT LeftHandIndex1
									{
										OFFSET 0.715260 -0.000000 -0.000000
										CHANNELS 3 Zrotation Yrotation Xrotation
										End Site
										{
											OFFSET 0.000000 0.000000 0.000000
										}
									}
								}
								JOINT LThumb
								{
									OFFSET 0.000000 0.000000 0.000000
									CHANNELS 3 Zrotation Yrotation Xrotation
									End Site
									{
										OFFSET 0.000000 0.000000 0.000000
									}
								}
							}
						}
					}
				}
				JOINT RightShoulder
				{
					OFFSET 0.000000 0.000000 0.000000
					CHANNELS 3 Zrotation Yrotation Xrotation
					JOINT RightArm
					{
						OFFSET -3.136600 1.374050 -0.404650
						CHANNELS 3 Zrotation Yrotation Xrotation
						JOINT RightForeArm
						{
							OFFSET -5.241900 -0.000000 -0.000000
							CHANNELS 3 Zrotation Yrotation Xrotation
							JOINT RightHand
							{
								OFFSET -3.444170 -0.000000 -0.000000
								CHANNELS 3 Zrotation Yrotation Xrotation
								JOINT RightFingerBase
								{
									OFFSET 0.000000 0.000000 0.000000
									CHANNELS 3 Zrotation Yrotation Xrotation
									JOINT RightHandIndex1
									{
										OFFSET -0.622530 -0.000000 -0.000000
										CHANNELS 3 Zrotation Yrotation Xrotation
										End Site
										{
											OFFSET 0.000000 0.000000 0.000000
										}
									}
								}
								JOINT RThumb
								{
									OFFSET 0.000000 0.000000 0.000000
									CHANNELS 3 Zrotation Yrotation Xrotation
									End Site
									{
										OFFSET 0.000000 0.000000 0.000000
									}
								}
							}
						}
					}
				}
			}
		}
	}
}
MOTION
Frames: 12
Frame Time: 0.008333
10.176413 24.680717 31.706821 -4.418088 14.534481 39.260221 -12.483409 3.149438 1.252429 35.254494 -5.540806 -51.301621 -48.322183 -18.174519 -1.878366 15.435225 37.653147 72.860471 0.817000 -5.767800 -16.112000 -6.596214 6.992257 -6.232753 -10.752068 30.691847 -50.492831 36.797464 -16.302443 23.162499 -21.093990 -45.110007 51.024152 -0.004900 -0.452100 1.242300 6.227928 -2.419218 -22.927694 3.865831 -3.835548 -12.340647 -2.425955 -5.235727 -12.668402 -4.936541 -4.198092 -15.079585 5.064174 -5.157126 8.890202 1.579800 -2.543100 12.513700 -24.741602 -13.863663 -3.046872 -44.589800 14.919704 40.294037 5.246614 -18.206810 -4.346588 -3.515447 -7.268194 6.158695 9.009956 15.330354 4.638800 -7.125000 0.000000 0.000000 -17.629500 52.401100 -3.294900 22.098528 9.749286 -3.663534 42.069144 -21.281647 41.369746 -7.995399 22.471004 -5.108394 3.236869 3.613911 11.496133 -13.285409 -8.553644 3.560900 7.125000 0.000000 0.000000 10.416200 -42.935800 0.536800 
10.171153 24.684129 31.728857 -4.618465 14.483454 39.441586 -12.844834 3.168060 1.542652 35.397154 -4.744252 -51.604584 -48.344707 -18.420424 -1.177525 15.416199 37.580447 72.746933 0.807300 -5.734000 -16.014600 -6.439987 7.015068 -6.113114 -10.740452 30.438990 -50.720278 36.893071 -16.628625 22.809100 -20.983301 -44.765358 50.516741 -0.004800 -0.449500 1.235100 6.365122 -2.356384 -23.299765 3.913468 -3.826651 -12.427440 -2.410630 -5.250254 -12.687362 -5.012122 -4.248154 -15.041370 5.076547 -5.209561 8.894279 1.596300 -2.572200 12.521800 -24.736337 -13.836177 -3.084358 -44.704131 15.095735 39.857797 5.187528 -18.163252 -4.321790 -3.536939 -7.137426 7.373930 8.878852 15.181735 4.497000 -7.125000 0.000000 0.000000 -17.773000 52.155700 -3.214200 22.093129 9.724798 -3.645716 41.962404 -21.210571 41.615189 -8.110055 22.566094 -5.165619 3.213659 3.654440 11.533604 -13.175840 -8.630995 3.558400 7.125000 0.000000 0.000000 10.569500 -43.037000 0.518200 
10.166177 24.688536 31.749614 -4.772745 14.433140 39.600618 -13.188013 3.257244 1.705731 35.577936 -4.152535 -51.804393 -48.308437 -18.748663 -0.661602 15.326213 37.741600 72.682922 0.799300 -5.706300 -15.934600 -6.250375 6.999846 -5.955956 -10.755245 30.145861 -50.961534 37.015555 -16.874974 22.490149 -20.857483 -44.445481 50.044777 -0.004800 -0.448000 1.231100 6.477714 -2.305247 -23.654292 3.942893 -3.831090 -12.507855 -2.385903 -5.261020 -12.700274 -5.084334 -4.291584 -15.019935 5.092158 -5.252943 8.902281 1.611900 -2.595600 12.540600 -24.717482 -13.811934 -3.123663 -44.858173 15.267692 39.420718 5.143032 -18.133333 -4.308469 -3.554794 -7.044986 8.226763 8.809108 15.095068 4.412400 -7.125000 0.000000 0.000000 -17.854700 52.003400 -3.161900 22.089297 9.708803 -3.626909 41.865102 -21.137528 41.862095 -8.222185 22.653142 -5.218012 3.197114 3.687028 11.571341 -13.102188 -8.701705 3.562300 7.125000 0.000000 0.000000 10.681100 -43.130100 0.499000 
10.161486 24.693512 31.768949 -4.877302 14.377190 39.737671 -13.488641 3.406882 1.763608 35.773367 -3.773791 -51.917001 -48.234374 -19.112371 -0.325737 15.169392 38.131183 72.621034 0.790100 -5.674300 -15.842200 -6.040046 6.948794 -5.767654 -10.789130 29.819320 -51.211989 37.156324 -17.051803 22.204015 -20.713905 -44.154614 49.595952 -0.005000 -0.456700 1.254900 6.559416 -2.266991 -23.986524 3.953648 -3.846928 -12.583130 -2.347475 -5.265754 -12.714228 -5.162536 -4.331263 -14.995125 5.113155 -5.288759 8.913686 1.632300 -2.615900 12.562800 -24.685215 -13.787272 -3.165218 -45.056860 15.439454 39.000205 5.115124 -18.119181 -4.304788 -3.577572 -6.984375 8.666791 8.840374 15.052846 4.400300 -7.125000 0.000000 0.000000 -17.811600 51.929900 -3.121100 22.085797 9.700108 -3.606937 41.778229 -21.063143 42.097741 -8.328916 22.730422 -5.264913 3.186652 3.710072 11.608796 -13.064970 -8.758812 3.570700 7.125000 0.000000 0.000000 10.748500 -43.205100 0.482100 
10.156936 24.698488 31.786862 -4.952669 14.321406 39.865781 -13.763687 3.561343 1.777469 35.968814 -3.508009 -51.998066 -48.179215 -19.462201 -0.028759 15.004336 38.575835 72.567616 0.781800 -5.644800 -15.757300 -5.819899 6.876774 -5.581028 -10.835745 29.496093 -51.454493 37.305531 -17.166652 21.958447 -20.566674 -43.900806 49.190278 -0.005200 -0.466000 1.280400 6.624226 -2.235650 -24.307304 3.956781 -3.868181 -12.653085 -2.305486 -5.268735 -12.724443 -5.240444 -4.367984 -14.977154 5.139386 -5.319057 8.930068 1.656600 -2.633000 12.595200 -24.643676 -13.764941 -3.208442 -45.293477 15.609420 38.595462 5.103412 -18.119370 -4.311859 -3.598861 -6.961097 8.707360 8.941814 15.065541 4.446900 -7.125000 0.000000 0.000000 -17.691900 51.944000 -3.105300 22.079950 9.697415 -3.587244 41.708154 -20.990185 42.308807 -8.425177 22.794788 -5.304495 3.180277 3.726385 11.652506 -13.046786 -8.809880 3.581500 7.125000 0.000000 0.000000 10.791900 -43.270100 0.466500 
10.152671 24.702469 31.803638 -5.026638 14.266827 40.000803 -14.040639 3.654509 1.808248 36.146054 -3.238766 -52.118713 -48.217972 -19.742154 0.437682 14.904415 38.878737 72.538418 0.775600 -5.623200 -15.695000 -5.595797 6.803519 -5.426915 -10.890979 29.200850 -51.677806 37.455688 -17.251560 21.744571 -20.421830 -43.677751 48.819343 -0.005400 -0.474900 1.304800 6.691419 -2.203459 -24.630317 3.966504 -3.889538 -12.717390 -2.265621 -5.272768 -12.727286 -5.316904 -4.401223 -14.967161 5.170362 -5.343267 8.952713 1.685400 -2.646700 12.639800 -24.595862 -13.746601 -3.252865 -45.566128 15.774559 38.210068 5.107658 -18.131851 -4.328251 -3.618843 -6.970679 8.360778 9.114944 15.120348 4.549600 -7.125000 0.000000 0.000000 -17.486600 52.029600 -3.104700 22.068988 9.699736 -3.567852 41.656580 -20.917363 42.484860 -8.510867 22.847158 -5.336883 3.176498 3.730352 11.702190 -13.053915 -8.833844 3.589200 7.125000 0.000000 0.000000 10.799900 -43.300600 0.458600 
10.148548 24.704886 31.819134 -5.129895 14.224825 40.156102 -14.364682 3.623009 1.906558 36.299292 -2.850917 -52.337277 -48.418947 -19.924446 1.299601 14.931458 38.887033 72.549183 0.772400 -5.611900 -15.662300 -5.376189 6.753801 -5.341493 -10.949888 28.971495 -51.864729 37.597190 -17.323424 21.567471 -20.295994 -43.492043 48.503530 -0.005600 -0.481800 1.323900 6.781421 -2.161725 -24.967186 3.998481 -3.907092 -12.773066 -2.235080 -5.283761 -12.725439 -5.390818 -4.434205 -14.961746 5.204888 -5.366746 8.982834 1.717900 -2.659200 12.699200 -24.548155 -13.734772 -3.298259 -45.866330 15.936144 37.841253 5.123118 -18.151375 -4.352378 -3.631497 -7.012465 7.693034 9.326676 15.216587 4.690800 -7.125000 0.000000 0.000000 -17.240400 52.179500 -3.123300 22.049792 9.704186 -3.550422 41.627026 -20.849596 42.620242 -8.581825 22.885921 -5.360178 3.173434 3.721309 11.750326 -13.080312 -8.822969 3.589700 7.125000 0.000000 0.000000 10.776400 -43.284700 0.461900 
10.144852 24.707018 31.833919 -5.224139 14.181539 40.297832 -14.674469 3.566629 1.992870 36.441043 -2.505832 -52.546089 -48.639205 -20.077088 2.204951 14.976425 38.878506 72.572017 0.769600 -5.601600 -15.632800 -5.161527 6.702906 -5.273787 -11.012529 28.771790 -52.029005 37.733644 -17.367675 21.424317 -20.188900 -43.327149 48.243456 -0.005600 -0.483900 1.329600 6.864688 -2.119915 -25.290517 4.029363 -3.922654 -12.820702 -2.208149 -5.294426 -12.722523 -5.460072 -4.466623 -14.956275 5.243423 -5.389678 9.019689 1.754200 -2.670800 12.770100 -24.497886 -13.725453 -3.344259 -46.188813 16.093633 37.471930 5.144573 -18.174620 -4.383196 -3.632469 -7.087536 6.776071 9.546058 15.364381 4.857000 -7.125000 0.000000 0.000000 -17.001600 52.400100 -3.171300 22.025885 9.712067 -3.535801 41.623015 -20.792043 42.715394 -8.638254 22.911531 -5.374686 3.173080 3.699985 11.799536 -13.132605 -8.784713 3.587100 7.125000 0.000000 0.000000 10.716000 -43.232400 0.473300 
10.141156 24.709008 31.847852 -5.310201 14.140566 40.426107 -14.971042 3.496937 2.065068 36.573722 -2.208076 -52.735670 -48.861324 -20.214454 3.120009 15.025671 38.888230 72.588684 0.766900 -5.592200 -15.605600 -4.958912 6.656270 -5.221259 -11.075493 28.601927 -52.170850 37.859857 -17.398123 21.306981 -20.100330 -43.179115 48.030285 -0.005600 -0.483900 1.329600 6.940873 -2.078623 -25.598811 4.059029 -3.937724 -12.861037 -2.183790 -5.305701 -12.719059 -5.522294 -4.498125 -14.953763 5.284326 -5.412740 9.062890 1.791400 -2.681200 12.852800 -24.446716 -13.719276 -3.390551 -46.529021 16.246767 37.090211 5.165997 -18.195189 -4.417037 -3.622355 -7.186570 5.706201 9.759900 15.553283 5.037200 -7.125000 0.000000 0.000000 -16.785200 52.673200 -3.243100 21.999105 9.723180 -3.524256 41.642862 -20.742238 42.765421 -8.679408 22.923293 -5.381511 3.170384 3.673690 11.848158 -13.178037 -8.730440 3.576700 7.125000 0.000000 0.000000 10.658300 -43.158400 0.490300 
10.137744 24.710146 31.861074 -5.429344 14.097202 40.569252 -15.307899 3.314670 2.180668 36.666798 -1.839943 -52.999826 -49.184727 -20.269785 4.401120 15.192493 38.685965 72.590362 0.765000 -5.585400 -15.586000 -4.763594 6.642831 -5.220792 -11.139927 28.479530 -52.288485 37.977018 -17.450248 21.196104 -20.024168 -43.040214 47.838023 -0.005700 -0.487500 1.339500 7.038629 -2.023047 -25.917960 4.107389 -3.946435 -12.893928 -2.165988 -5.319121 -12.715877 -5.580528 -4.530358 -14.945298 5.328581 -5.437010 9.109738 1.832600 -2.691800 12.941000 -24.399667 -13.715294 -3.436890 -46.885169 16.394674 36.688734 5.182844 -18.206456 -4.449279 -3.604832 -7.299966 4.580202 9.963784 15.776205 5.225500 -7.125000 0.000000 0.000000 -16.597100 52.986400 -3.334300 21.966807 9.736502 -3.514538 41.683242 -20.699530 42.774715 -8.704966 22.922311 -5.380881 3.167721 3.646973 11.888014 -13.215634 -8.677652 3.564600 7.125000 0.000000 0.000000 10.606900 -43.083400 0.507800 
10.134474 24.711567 31.873727 -5.541226 14.045293 40.702121 -15.629318 3.127800 2.270543 36.744438 -1.546934 -53.238854 -49.483327 -20.315518 5.678255 15.363688 38.533363 72.555915 0.762700 -5.577100 -15.562100 -4.572485 6.631358 -5.221761 -11.206405 28.365079 -52.400134 38.091670 -17.497871 21.091962 -19.955057 -42.900829 47.665774 -0.005900 -0.494000 1.357400 7.127796 -1.964878 -26.225113 4.151571 -3.951819 -12.922517 -2.149748 -5.329132 -12.710216 -5.631473 -4.563746 -14.937763 5.376442 -5.463672 9.159484 1.877200 -2.702700 13.034900 -24.355841 -13.711213 -3.481365 -47.247083 16.532390 36.261218 5.187620 -18.201077 -4.474235 -3.582377 -7.413183 3.493973 10.146870 16.007776 5.406800 -7.125000 0.000000 0.000000 -16.440400 53.303900 -3.430900 21.933721 9.753737 -3.507147 41.745995 -20.662021 42.741264 -8.714412 22.907429 -5.373419 3.164534 3.624530 11.920726 -13.232984 -8.640375 3.552600 7.125000 0.000000 0.000000 10.579100 -43.026300 0.521500 
10.131204 24.712563 31.885384 -5.656976 13.974995 40.834507 -15.947470 2.896683 2.353769 36.787703 -1.294015 -53.489064 -49.785117 -20.315971 7.075997 15.586937 38.335709 72.479742 0.759700 -5.566300 -15.531200 -4.376506 6.626285 -5.232783 -11.278267 28.255116 -52.509939 38.209564 -17.548799 20.986016 -19.882417 -42.758310 47.491854 -0.006200 -0.506800 1.392700 7.215377 -1.899896 -26.526637 4.197455 -3.952580 -12.947672 -2.132855 -5.333442 -12.704047 -5.677263 -4.598148 -14.928645 5.427428 -5.492004 9.212534 1.925500 -2.714000 13.134300 -24.317464 -13.705131 -3.524226 -47.611536 16.659529 35.809178 5.173854 -18.171190 -4.483839 -3.563178 -7.507070 2.512799 10.324402 16.206684 5.575200 -7.125000 0.000000 0.000000 -16.273200 53.574500 -3.503600 21.901019 9.776539 -3.501070 41.826467 -20.627643 42.669778 -8.710089 22.880438 -5.360299 3.162296 3.607084 11.947237 -13.234347 -8.623821 3.543800 7.125000 0.000000 0.000000 10.570900 -42.992900 0.529900 
